<svg width="20" height="20" viewBox="0 0 20 20" fill="none" xmlns="http://www.w3.org/2000/svg">
<path d="M4 13C3.17 13 2.42 13.34 1.88 13.88C0.7 15.06 0 20 0 20C0 20 4.94 19.3 6.12 18.12C6.66 17.58 7 16.83 7 16C7 14.34 5.66 13 4 13ZM4.71 16.71C4.43 16.99 2.54 17.47 2.54 17.47C2.54 17.47 3.01 15.59 3.3 15.3C3.47 15.11 3.72 15 4 15C4.55 15 5 15.45 5 16C5 16.28 4.89 16.53 4.71 16.71ZM15.42 11.65C21.78 5.28999 19.66 0.339994 19.66 0.339994C19.66 0.339994 14.71 -1.78001 8.35 4.57999L5.86 4.07999C5.21 3.94999 4.53 4.15999 4.05 4.62999L0 8.68999L5 10.83L9.17 15L11.31 20L15.36 15.95C15.83 15.48 16.04 14.8 15.91 14.14L15.42 11.65ZM5.41 8.82999L3.5 8.00999L5.47 6.03999L6.91 6.32999C6.34 7.15999 5.83 8.02999 5.41 8.82999ZM11.99 16.5L11.17 14.59C11.97 14.17 12.84 13.66 13.66 13.09L13.95 14.53L11.99 16.5ZM14 10.24C12.68 11.56 10.62 12.64 9.96 12.97L7.03 10.04C7.35 9.38999 8.43 7.32999 9.76 5.99999C14.44 1.31999 17.99 2.00999 17.99 2.00999C17.99 2.00999 18.68 5.55999 14 10.24ZM13 8.99999C14.1 8.99999 15 8.09999 15 6.99999C15 5.89999 14.1 4.99999 13 4.99999C11.9 4.99999 11 5.89999 11 6.99999C11 8.09999 11.9 8.99999 13 8.99999Z" fill="#D2D3D6"/>
</svg>
