<svg width="21" height="20" viewBox="0 0 21 20" fill="none" xmlns="http://www.w3.org/2000/svg">
<path d="M17.9115 10.98C17.9526 10.66 17.9834 10.34 17.9834 10C17.9834 9.66 17.9526 9.34 17.9115 9.02L20.0807 7.37C20.276 7.22 20.3274 6.95 20.204 6.73L18.1479 3.27C18.0554 3.11 17.8806 3.02 17.6956 3.02C17.6339 3.02 17.5722 3.03 17.5208 3.05L14.9609 4.05C14.4264 3.65 13.8506 3.32 13.2235 3.07L12.8329 0.42C12.802 0.18 12.5861 0 12.3291 0H8.21692C7.9599 0 7.74401 0.18 7.71317 0.42L7.32251 3.07C6.6954 3.32 6.11969 3.66 5.5851 4.05L3.02525 3.05C2.96356 3.03 2.90188 3.02 2.8402 3.02C2.66543 3.02 2.49066 3.11 2.39814 3.27L0.342028 6.73C0.208382 6.95 0.270065 7.22 0.465395 7.37L2.63459 9.02C2.59347 9.34 2.56262 9.67 2.56262 10C2.56262 10.33 2.59347 10.66 2.63459 10.98L0.465395 12.63C0.270065 12.78 0.218662 13.05 0.342028 13.27L2.39814 16.73C2.49066 16.89 2.66543 16.98 2.85048 16.98C2.91216 16.98 2.97384 16.97 3.02525 16.95L5.5851 15.95C6.11969 16.35 6.6954 16.68 7.32251 16.93L7.71317 19.58C7.74401 19.82 7.9599 20 8.21692 20H12.3291C12.5861 20 12.802 19.82 12.8329 19.58L13.2235 16.93C13.8506 16.68 14.4264 16.34 14.9609 15.95L17.5208 16.95C17.5825 16.97 17.6442 16.98 17.7058 16.98C17.8806 16.98 18.0554 16.89 18.1479 16.73L20.204 13.27C20.3274 13.05 20.276 12.78 20.0807 12.63L17.9115 10.98ZM15.8759 9.27C15.917 9.58 15.9273 9.79 15.9273 10C15.9273 10.21 15.9068 10.43 15.8759 10.73L15.732 11.86L16.647 12.56L17.7572 13.4L17.0376 14.61L15.732 14.1L14.6628 13.68L13.7376 14.36C13.2955 14.68 12.874 14.92 12.4525 15.09L11.3628 15.52L11.1983 16.65L10.9927 18H9.55339L9.35806 16.65L9.19357 15.52L8.10383 15.09C7.66177 14.91 7.25055 14.68 6.83932 14.38L5.9038 13.68L4.81406 14.11L3.50843 14.62L2.78879 13.41L3.89909 12.57L4.81406 11.87L4.67013 10.74C4.63929 10.43 4.61873 10.2 4.61873 10C4.61873 9.8 4.63929 9.57 4.67013 9.27L4.81406 8.14L3.89909 7.44L2.78879 6.6L3.50843 5.39L4.81406 5.9L5.88323 6.32L6.80848 5.64C7.25055 5.32 7.67205 5.08 8.09355 4.91L9.18329 4.48L9.34778 3.35L9.55339 2H10.9824L11.1777 3.35L11.3422 4.48L12.4319 4.91C12.874 5.09 13.2852 5.32 13.6964 5.62L14.632 6.32L15.7217 5.89L17.0273 5.38L17.747 6.59L16.647 7.44L15.732 8.14L15.8759 9.27ZM10.273 6C8.00102 6 6.16081 7.79 6.16081 10C6.16081 12.21 8.00102 14 10.273 14C12.545 14 14.3852 12.21 14.3852 10C14.3852 7.79 12.545 6 10.273 6ZM10.273 12C9.14216 12 8.21692 11.1 8.21692 10C8.21692 8.9 9.14216 8 10.273 8C11.4039 8 12.3291 8.9 12.3291 10C12.3291 11.1 11.4039 12 10.273 12Z" fill="white"/>
</svg>
